<svg width="32" height="38" viewBox="0 0 32 38" fill="none" xmlns="http://www.w3.org/2000/svg">
<path fill-rule="evenodd" clip-rule="evenodd" d="M6.84185 3.60024C6.84185 3.14969 11.4382 0 16.002 0C20.5658 0 25.1622 3.15072 25.1622 3.60024C25.1622 5.20491 24.9933 6.15537 24.8508 6.67278C24.7561 7.01223 24.4416 7.20047 24.0925 7.20047H7.91156C7.56245 7.20047 7.24795 7.01223 7.1533 6.67278C7.0108 6.15537 6.84185 5.20491 6.84185 3.60024ZM14.4753 3.08592C14.2054 3.08592 13.9465 3.19429 13.7556 3.3872C13.5648 3.5801 13.4575 3.84174 13.4575 4.11455C13.4575 4.38737 13.5648 4.649 13.7556 4.84191C13.9465 5.03482 14.2054 5.14319 14.4753 5.14319H17.5287C17.7987 5.14319 18.0576 5.03482 18.2484 4.84191C18.4393 4.649 18.5465 4.38737 18.5465 4.11455C18.5465 3.84174 18.4393 3.5801 18.2484 3.3872C18.0576 3.19429 17.7987 3.08592 17.5287 3.08592H14.4753ZM7.89832 13.5965C4.50906 12.537 5.36401 10.6444 6.65661 9.25775H25.6304C26.6645 10.5929 27.2192 12.3941 24.0935 13.4721C24.2213 14.618 24.1093 15.7783 23.7649 16.8777C23.4204 17.977 22.8512 18.991 22.0941 19.8537C21.337 20.7165 20.4089 21.4088 19.37 21.8857C18.3312 22.3627 17.2047 22.6136 16.0637 22.6223C14.9228 22.631 13.7927 22.3973 12.7468 21.9362C11.701 21.4751 10.7627 20.7971 9.9928 19.9459C9.2229 19.0948 8.6386 18.0897 8.27779 16.9957C7.91697 15.9017 7.78768 14.7433 7.89832 13.5955V13.5965ZM15.7252 14.4009C18.4142 14.4009 20.4987 14.2569 22.0966 14.0059C22.1491 14.8446 22.0317 15.6853 21.7513 16.4764C21.471 17.2676 21.0338 17.9926 20.4665 18.6069C19.8992 19.2213 19.2137 19.712 18.452 20.0492C17.6904 20.3863 16.8687 20.5627 16.0372 20.5676C15.2057 20.5724 14.382 20.4056 13.6166 20.0773C12.8512 19.7491 12.1601 19.2663 11.5858 18.6586C11.0115 18.0509 10.5661 17.3311 10.2768 16.5432C9.98748 15.7554 9.86042 14.9161 9.90339 14.0769C11.3924 14.2847 13.3008 14.4009 15.7252 14.4009ZM24.5688 29.4191C23.6482 27.9674 22.381 26.7732 20.884 25.9464C19.3869 25.1195 17.7081 24.6865 16.002 24.6873C14.2953 24.6862 12.6157 25.1192 11.1181 25.9465C9.6204 26.7738 8.35285 27.9687 7.43217 29.4211C7.09048 28.8893 6.56571 28.5044 5.95942 28.3411L3.99303 27.8092C3.34127 27.6327 2.64679 27.7249 2.06235 28.0658C1.47791 28.4067 1.05136 28.9682 0.876533 29.6269L0.0867209 32.6078C0.000220276 32.9341 -0.0218502 33.2743 0.02177 33.6092C0.0653902 33.944 0.173847 34.2669 0.340946 34.5594C0.508045 34.8519 0.730514 35.1082 0.995649 35.3138C1.26078 35.5194 1.56339 35.6702 1.88619 35.7575L3.85156 36.2904C4.18214 36.3804 4.52733 36.4018 4.86633 36.3534C5.20533 36.3049 5.53111 36.1876 5.82405 36.0085C5.82486 36.2813 5.93287 36.5427 6.12432 36.735C6.31576 36.9273 6.57497 37.0349 6.8449 37.0341C7.11484 37.0333 7.3734 36.9241 7.5637 36.7306C7.754 36.5371 7.86046 36.2752 7.85965 36.0024V34.9737C7.85965 34.5818 7.88713 34.1961 7.93903 33.8186L13.2357 35.2535C13.4815 35.7854 13.8724 36.2353 14.3624 36.5505C14.8524 36.8658 15.4212 37.0332 16.002 37.0332C16.5829 37.0332 17.1517 36.8658 17.6417 36.5505C18.1317 36.2353 18.5226 35.7854 18.7684 35.2535L24.065 33.8186C24.1169 34.1961 24.1444 34.5818 24.1444 34.9737V36.0024C24.1431 36.2752 24.249 36.5373 24.4389 36.7312C24.6288 36.9251 24.8872 37.0348 25.1571 37.0361C25.4271 37.0375 25.6865 36.9304 25.8783 36.7385C26.0701 36.5465 26.1787 36.2854 26.18 36.0126C26.75 36.3583 27.4543 36.4786 28.1474 36.2904L30.1138 35.7586C30.4366 35.6712 30.7392 35.5204 31.0044 35.3148C31.2695 35.1092 31.492 34.8529 31.6591 34.5604C31.8262 34.2679 31.9346 33.945 31.9782 33.6102C32.0219 33.2753 31.9998 32.9351 31.9133 32.6089L31.1224 29.6279C30.9476 28.9692 30.5211 28.4077 29.9366 28.0668C29.3522 27.726 28.6577 27.6337 28.0059 27.8103L26.0396 28.3421C25.4347 28.5049 24.9108 28.8892 24.5688 29.4191ZM8.47338 31.8333C9.02318 30.4894 9.91519 29.3166 11.0588 28.434C12.2023 27.5515 13.5567 26.9906 14.9842 26.8084V31.0351C14.5281 31.1986 14.1169 31.4691 13.7842 31.8244C13.4516 32.1797 13.2071 32.6096 13.0708 33.079L8.47338 31.8343V31.8333ZM23.5307 31.8333C22.9808 30.4895 22.0888 29.3167 20.9452 28.4342C19.8017 27.5516 18.4473 26.9907 17.0198 26.8084V31.0351C17.9399 31.3642 18.6585 32.1254 18.9333 33.079L23.5307 31.8343V31.8333ZM16.002 34.9737C16.272 34.9737 16.5309 34.8653 16.7217 34.6724C16.9126 34.4795 17.0198 34.2179 17.0198 33.9451C17.0198 33.6723 16.9126 33.4106 16.7217 33.2177C16.5309 33.0248 16.272 32.9164 16.002 32.9164C15.7321 32.9164 15.4732 33.0248 15.2823 33.2177C15.0915 33.4106 14.9842 33.6723 14.9842 33.9451C14.9842 34.2179 15.0915 34.4795 15.2823 34.6724C15.4732 34.8653 15.7321 34.9737 16.002 34.9737Z" fill="white"/>
</svg>
