<svg width="31" height="33" viewBox="0 0 31 33" fill="none" xmlns="http://www.w3.org/2000/svg">
<path d="M1.72222 14.2361H8.61111C9.06787 14.2361 9.50593 14.4236 9.82891 14.7573C10.1519 15.0911 10.3333 15.5437 10.3333 16.0156V30.2518C10.3333 30.7237 10.1519 31.1763 9.82891 31.5101C9.50593 31.8438 9.06787 32.0313 8.61111 32.0313H5.16667C3.8488 32.0313 2.58072 31.5111 1.62188 30.5769C0.663044 29.6427 0.0859259 28.3653 0.00861132 27.0059L8.02633e-09 26.6927V16.0156C8.02633e-09 15.5437 0.181448 15.0911 0.504427 14.7573C0.827406 14.4236 1.26546 14.2361 1.72222 14.2361ZM31 16.0156V26.6927C31.0001 28.0544 30.4965 29.3647 29.5925 30.3554C28.6884 31.3462 27.452 31.9425 26.1364 32.0224L25.8333 32.0313H15.5C15.0432 32.0313 14.6052 31.8438 14.2822 31.5101C13.9592 31.1763 13.7778 30.7237 13.7778 30.2518V16.0156C13.7778 15.5437 13.9592 15.0911 14.2822 14.7573C14.6052 14.4236 15.0432 14.2361 15.5 14.2361H29.2778C29.7345 14.2361 30.1726 14.4236 30.4956 14.7573C30.8186 15.0911 31 15.5437 31 16.0156ZM25.8333 8.29333e-09C27.1512 -7.5846e-05 28.4193 0.520197 29.3781 1.45437C30.337 2.38854 30.9141 3.66599 30.9914 5.02535L31 5.33854V8.89757C31 9.36953 30.8186 9.82216 30.4956 10.1559C30.1726 10.4896 29.7345 10.6771 29.2778 10.6771H15.5C15.0432 10.6771 14.6052 10.4896 14.2822 10.1559C13.9592 9.82216 13.7778 9.36953 13.7778 8.89757V1.77951C13.7778 1.30756 13.9592 0.854931 14.2822 0.521208C14.6052 0.187484 15.0432 8.29334e-09 15.5 8.29333e-09H25.8333ZM10.3333 1.77951V8.89757C10.3333 9.36953 10.1519 9.82216 9.82891 10.1559C9.50593 10.4896 9.06787 10.6771 8.61111 10.6771H1.72222C1.26546 10.6771 0.827406 10.4896 0.504427 10.1559C0.181448 9.82216 8.02633e-09 9.36953 8.02633e-09 8.89757V5.33854C-7.34041e-05 3.97684 0.503449 2.66658 1.40754 1.67584C2.31164 0.685101 3.54796 0.0887844 4.86356 0.00889779L5.16667 8.29333e-09H8.61111C9.06787 8.29334e-09 9.50593 0.187484 9.82891 0.521208C10.1519 0.854931 10.3333 1.30756 10.3333 1.77951Z" fill="white"/>
</svg>
