<svg width="23" height="31" viewBox="0 0 23 31" fill="none" xmlns="http://www.w3.org/2000/svg">
<path d="M21.0833 9.01961C21.0833 6.52839 20.01 4.27349 18.2773 2.64275C16.5428 1.0102 14.1469 0 11.5 0C8.85309 0 6.45725 1.0102 4.72267 2.64275C2.99 4.27349 1.91667 6.52839 1.91667 9.01961C1.91667 11.5108 2.99 13.7657 4.72267 15.3965C6.45725 17.029 8.85309 18.0392 11.5 18.0392C14.1469 18.0392 16.5428 17.029 18.2773 15.3965C19.1683 14.5599 19.8749 13.5659 20.3564 12.4716C20.838 11.3772 21.085 10.2041 21.0833 9.01961ZM0 27.0588C0 28.8628 4.3125 30.6667 11.5 30.6667C18.2428 30.6667 23 28.8628 23 27.0588C23 23.451 18.4882 19.8431 11.5 19.8431C4.3125 19.8431 0 23.451 0 27.0588Z" fill="white"/>
</svg>
