<svg width="48" height="40" viewBox="0 0 48 40" fill="none" xmlns="http://www.w3.org/2000/svg">
<path d="M8.54398 20.4398C10.9797 20.4398 12.96 18.3898 12.96 15.8683C12.96 13.3469 10.9797 11.2969 8.54398 11.2969C6.10828 11.2969 4.12798 13.3469 4.12798 15.8683C4.12798 18.3898 6.10828 20.4398 8.54398 20.4398ZM39.456 20.4398C41.8917 20.4398 43.872 18.3898 43.872 15.8683C43.872 13.3469 41.8917 11.2969 39.456 11.2969C37.0203 11.2969 35.04 13.3469 35.04 15.8683C35.04 18.3898 37.0203 20.4398 39.456 20.4398ZM41.664 22.7255H37.248C36.0336 22.7255 34.9365 23.2326 34.1361 24.054C36.9168 25.6326 38.8902 28.4826 39.318 31.8683H43.872C45.0933 31.8683 46.08 30.8469 46.08 29.5826V27.2969C46.08 24.7755 44.0997 22.7255 41.664 22.7255ZM24 22.7255C28.2711 22.7255 31.728 19.1469 31.728 14.7255C31.728 10.304 28.2711 6.72546 24 6.72546C19.7289 6.72546 16.272 10.304 16.272 14.7255C16.272 19.1469 19.7289 22.7255 24 22.7255ZM29.2992 25.0112H28.7265C27.2913 25.7255 25.6974 26.154 24 26.154C22.3026 26.154 20.7156 25.7255 19.2735 25.0112H18.7008C14.3124 25.0112 10.752 28.6969 10.752 33.2398V35.2969C10.752 37.1898 12.2355 38.7255 14.064 38.7255H33.936C35.7645 38.7255 37.248 37.1898 37.248 35.2969V33.2398C37.248 28.6969 33.6876 25.0112 29.2992 25.0112ZM13.8639 24.054C13.0635 23.2326 11.9664 22.7255 10.752 22.7255H6.33598C3.90028 22.7255 1.91998 24.7755 1.91998 27.2969V29.5826C1.91998 30.8469 2.90668 31.8683 4.12798 31.8683H8.67508C9.10978 28.4826 11.0832 25.6326 13.8639 24.054Z" fill="white"/>
</svg>
