<svg width="30" height="28" viewBox="0 0 30 28" fill="none" xmlns="http://www.w3.org/2000/svg">
<path fill-rule="evenodd" clip-rule="evenodd" d="M29.8409 3.91136C29.8409 5.19297 28.7685 6.24144 27.4577 6.24144H22.4102C22.7643 5.54777 22.9639 4.76521 22.9639 3.93702C22.9639 3.0884 22.7546 2.28755 22.3837 1.58127H27.4577C28.7685 1.58127 29.8409 2.62975 29.8409 3.91136ZM21.7063 24.063C21.7063 26.2374 19.9033 28 17.6794 28C15.4554 28 13.6527 26.2374 13.6527 24.063C13.6527 21.8888 15.4554 20.126 17.6794 20.126C19.9033 20.126 21.7063 21.8885 21.7063 24.063ZM29.864 24.0371C29.864 25.3187 28.7914 26.3672 27.4806 26.3672H22.4102C22.7643 25.6735 22.9639 24.8909 22.9639 24.063C22.9639 23.2144 22.7546 22.4135 22.3837 21.7072H27.4806C28.7916 21.7072 29.864 22.7557 29.864 24.0371ZM12.9481 26.3672H2.38583C1.07503 26.3672 0.00267361 25.3187 0.00267361 24.0371C0.00267361 22.7555 1.07503 21.707 2.38583 21.707H12.9745C12.6039 22.4133 12.3944 23.2141 12.3944 24.0627C12.3944 24.8909 12.5939 25.6735 12.9481 26.3672ZM6.88479 13.9537C6.88479 16.1279 8.68778 17.8907 10.9117 17.8907C13.1355 17.8907 14.9384 16.1279 14.9384 13.9537C14.9384 11.7792 13.1355 10.0164 10.9117 10.0164C8.68778 10.0162 6.88479 11.779 6.88479 13.9537ZM0 13.9278C0 15.2094 1.07285 16.2578 2.38316 16.2578H6.19305C5.83892 15.5639 5.63937 14.7918 5.63937 13.9537C5.63937 13.1153 5.84865 12.3042 6.21955 11.5977H2.38316C1.07236 11.5977 0 12.6462 0 13.9278ZM15.655 16.2578H27.4835C28.7941 16.2578 29.8667 15.2094 29.8667 13.9278C29.8667 12.6459 28.7943 11.5974 27.4835 11.5974H15.6287C15.9994 12.3039 16.2089 13.115 16.2089 13.9534C16.2089 14.7918 16.0091 15.5639 15.655 16.2578ZM21.7063 3.93702C21.7063 6.11145 19.9033 7.87405 17.6794 7.87405C15.4554 7.87405 13.6524 6.11169 13.6524 3.93702C13.6524 1.76259 15.4552 0 17.6791 0C19.9031 0 21.7063 1.76259 21.7063 3.93702ZM12.9481 6.24144H2.39483C1.08403 6.24144 0.0116667 5.19273 0.0116667 3.91136C0.0116667 2.62975 1.08403 1.58127 2.39483 1.58127H12.9745C12.6039 2.28755 12.3944 3.0884 12.3944 3.93702C12.3944 4.76521 12.5939 5.54777 12.9481 6.24144Z" fill="white"/>
</svg>
