<svg width="30" height="24" viewBox="0 0 30 24" fill="none" xmlns="http://www.w3.org/2000/svg">
<g clip-path="url(#clip0_102_129)">
<path fill-rule="evenodd" clip-rule="evenodd" d="M2.18262 1.93747H27.8174C29.0186 1.93747 30 2.9011 30 4.08046C30 5.25982 29.0186 6.22345 27.8174 6.22345H2.18262C0.981445 6.22345 0 5.25982 0 4.08046C0 2.9011 0.981445 1.93747 2.18262 1.93747ZM2.18262 20.6515H27.8174C29.0186 20.6515 30 21.6151 30 22.7945C30 23.9738 29.0186 24.9375 27.8174 24.9375H2.18262C0.981445 24.9375 0 23.9738 0 22.7945C0 21.6151 0.981445 20.6515 2.18262 20.6515ZM2.18262 11.2933H27.8174C29.0186 11.2933 30 12.2569 30 13.4363C30 14.6156 29.0186 15.5793 27.8174 15.5793H2.18262C0.981445 15.5793 0 14.6156 0 13.4363C0 12.2593 0.981445 11.2933 2.18262 11.2933Z" fill="white"/>
</g>
<defs>
<clipPath id="clip0_102_129">
<rect width="30" height="23.0225" fill="white"/>
</clipPath>
</defs>
</svg>
