<svg width="16" height="17" viewBox="0 0 16 17" fill="none" xmlns="http://www.w3.org/2000/svg">
<path d="M6.4518 0C8.23342 0 9.84614 0.748179 11.0137 1.95788C12.1812 3.16759 12.9033 4.83868 12.9033 6.68464C12.9033 8.45672 12.2378 10.0674 11.1519 11.2636C11.1716 11.2787 11.1907 11.2955 11.2088 11.314L15.8534 16.1197C16.048 16.3202 16.049 16.6464 15.8553 16.8481C15.6618 17.0499 15.347 17.0507 15.1524 16.8502L10.5078 12.0445C10.4782 12.014 10.4533 11.9808 10.4326 11.9455C9.33594 12.8375 7.95382 13.3694 6.45166 13.3694C4.67004 13.3694 3.05706 12.6212 1.88951 11.4115C0.722104 10.2018 0 8.5306 0 6.68464C0 4.83868 0.722104 3.16759 1.88965 1.95788C3.05719 0.748318 4.67017 0 6.4518 0ZM10.2924 2.70537C9.3095 1.687 7.95169 1.05711 6.4518 1.05711C4.95191 1.05711 3.59396 1.687 2.61108 2.70537C1.6282 3.72374 1.02027 5.13059 1.02027 6.68464C1.02027 8.23869 1.6282 9.64567 2.61108 10.664C3.59383 11.6824 4.95178 12.3123 6.4518 12.3123C7.95169 12.3123 9.3095 11.6824 10.2924 10.664C11.2753 9.64581 11.8832 8.23883 11.8832 6.68464C11.8832 5.13059 11.2753 3.72374 10.2924 2.70537Z" fill="#929292"/>
</svg>
